<svg class="logo logo-blue" id="レイヤー_1" data-name="レイヤー 1" xmlns="http://www.w3.org/2000/svg" width="185px" height="50px" viewBox="20 25 300 66">
                        <defs>
                            <style>
                                .cls-1 {
                                    fill: #6785c1;
                                }
                            </style>
                        </defs>
                        <title>CorporateLogotype+Tagline_Left</title>
                        <polygon class="cls-1" points="63.65 21.13 63.65 29.63 76.62 29.63 76.62 61.55 85.8 61.55 85.8 29.63 98.77 29.63 98.77 21.13 63.65 21.13"></polygon>
                        <path class="cls-1" d="M201.48,52.91c-1.39,0-3-.71-3-4.17s1.54-4.08,3-4.08H218.8v8.25Zm13.33-31.78H191.69V29.7H214.2c3.3,0,4.59,1.5,4.59,5.38,0,0,0,1.1,0,1.43H200.14c-7.1,0-10.63,3.55-10.63,11.57V50c0,8.26,3.66,11.55,11,11.55h27.36V35c0-10.18-3.36-13.84-13.07-13.84"></path>
                        <path class="cls-1" d="M277.73,52.91c-1.39,0-3-.71-3-4.17s1.55-4.08,3-4.08h17.32v8.25Zm13.33-31.78H267.94V29.7h22.52c3.3,0,4.59,1.5,4.59,5.38v1.43H276.39c-7.1,0-10.63,3.55-10.63,11.57V50c0,8.26,3.66,11.55,11,11.55h27.35V35c0-10.18-3.35-13.84-13.07-13.84"></path>
                        <polygon class="cls-1" points="101.69 21.13 101.69 29.63 114.66 29.63 114.66 61.55 123.85 61.55 123.85 29.63 136.82 29.63 136.82 21.13 101.69 21.13"></polygon>
                        <polygon class="cls-1" points="229.73 21.13 229.73 29.63 242.7 29.63 242.7 61.55 251.88 61.55 251.88 29.63 264.86 29.63 264.86 21.13 229.73 21.13"></polygon>
                        <path class="cls-1" d="M176.57,47.56c0,3.88-1.3,5.38-4.6,5.38h-14.8V29.74H172c3.3,0,4.6,1.5,4.6,5.38Zm9.38-.18V35.29c0-10.6-4.11-14.17-13.37-14.17H148V61.54h25c9.84,0,12.94-4.88,12.94-14.15"></path>
                        <path class="cls-1" d="M50.7,51.92c-.2-.36-12.47-24.28-14-26.63-1.73-2.72-3.84-4.61-7.87-4.61-3.75,0-8.19,1.66-8.19,10.66V61.56h9.05V36.35c0-1.81-.11-4.49-.13-5s0-.87.23-1,.52.1.7.43,11.55,22.84,14,26.64C46.21,60.11,48.32,62,52.35,62c3.75,0,8.19-1.68,8.19-10.67V21.12H51.48V46.32c0,1.81.11,4.5.14,5s0,.86-.23,1-.52-.11-.69-.44"></path>
                        <path d="M109,75.34a5.46,5.46,0,0,1,2.74,4.24h-2a3.76,3.76,0,0,0-1.51-2.46,5,5,0,0,0-2.89-.78,4.47,4.47,0,0,0-3.5,1.6,7.09,7.09,0,0,0-1.42,4.8,7.76,7.76,0,0,0,1.17,4.48A4.25,4.25,0,0,0,105.32,89a4.76,4.76,0,0,0,3.36-1.22A5.19,5.19,0,0,0,110,83.81h-4.78V82.08H112v8.64h-1.33l-.5-2.36A7.92,7.92,0,0,1,108.3,90a6.7,6.7,0,0,1-3.4.78A6.51,6.51,0,0,1,100.31,89a8.58,8.58,0,0,1-2.1-6.12,8.9,8.9,0,0,1,2.05-6.17,6.52,6.52,0,0,1,5-2.2A7.47,7.47,0,0,1,109,75.34ZM127.45,80a5.94,5.94,0,0,1,1.47,4.35,7.66,7.66,0,0,1-1.29,4.58,4.63,4.63,0,0,1-4,1.82A4.48,4.48,0,0,1,120,89.11a6.46,6.46,0,0,1-1.34-4.3,6.94,6.94,0,0,1,1.42-4.6,4.65,4.65,0,0,1,3.79-1.72A4.94,4.94,0,0,1,127.45,80Zm-1.16,7.63a7.52,7.52,0,0,0,.68-3.23,5.89,5.89,0,0,0-.49-2.6,2.74,2.74,0,0,0-2.69-1.59,2.61,2.61,0,0,0-2.46,1.35,6.47,6.47,0,0,0-.77,3.25,5.63,5.63,0,0,0,.77,3,2.68,2.68,0,0,0,2.45,1.22A2.53,2.53,0,0,0,126.29,87.6ZM199.93,80a5.91,5.91,0,0,1,1.48,4.35,7.64,7.64,0,0,1-1.3,4.58,4.62,4.62,0,0,1-4,1.82,4.48,4.48,0,0,1-3.62-1.61,6.47,6.47,0,0,1-1.34-4.3,7,7,0,0,1,1.41-4.6,4.66,4.66,0,0,1,3.8-1.72A4.92,4.92,0,0,1,199.93,80Zm-1.15,7.63a7.52,7.52,0,0,0,.68-3.23,5.85,5.85,0,0,0-.5-2.6,2.74,2.74,0,0,0-2.69-1.59,2.62,2.62,0,0,0-2.47,1.35,6.54,6.54,0,0,0-.77,3.25,5.69,5.69,0,0,0,.77,3,2.68,2.68,0,0,0,2.45,1.22A2.54,2.54,0,0,0,198.77,87.6Zm-50.21-4.27a1,1,0,0,0,.87-.55,1.84,1.84,0,0,0,.13-.75,1.6,1.6,0,0,0-.68-1.44,3.58,3.58,0,0,0-1.95-.45,2.42,2.42,0,0,0-2.07.83,2.8,2.8,0,0,0-.45,1.36h-1.75a3.41,3.41,0,0,1,1.33-3,5.31,5.31,0,0,1,3-.84,5.87,5.87,0,0,1,3.19.78,2.68,2.68,0,0,1,1.21,2.43v6.65a.85.85,0,0,0,.12.49.57.57,0,0,0,.5.18h.28l.33-.05V90.4c-.29.09-.51.14-.67.17a5.77,5.77,0,0,1-.62,0,1.54,1.54,0,0,1-1.4-.71,3.06,3.06,0,0,1-.32-1.07,4.75,4.75,0,0,1-1.64,1.35,4.85,4.85,0,0,1-2.35.58,3.43,3.43,0,0,1-2.53-1,3.29,3.29,0,0,1-1-2.44,3.2,3.2,0,0,1,1-2.49,4.5,4.5,0,0,1,2.54-1.09Zm-3.93,5.27a2.17,2.17,0,0,0,1.41.48,4.2,4.2,0,0,0,1.91-.47A2.69,2.69,0,0,0,149.5,86V84.46a3.35,3.35,0,0,1-.88.39,6.94,6.94,0,0,1-1.06.21l-1.13.15a4.24,4.24,0,0,0-1.53.45,1.72,1.72,0,0,0-.87,1.61A1.64,1.64,0,0,0,144.63,88.6Zm75-5.27a1,1,0,0,0,.86-.55,1.8,1.8,0,0,0,.12-.75,1.6,1.6,0,0,0-.68-1.44,3.55,3.55,0,0,0-1.94-.45A2.43,2.43,0,0,0,216,81a2.89,2.89,0,0,0-.44,1.36h-1.74a3.4,3.4,0,0,1,1.33-3,5.32,5.32,0,0,1,3-.84,5.83,5.83,0,0,1,3.18.78,2.67,2.67,0,0,1,1.22,2.43v6.65a.88.88,0,0,0,.12.49.58.58,0,0,0,.51.18h.28l.33-.05V90.4a6.72,6.72,0,0,1-.67.17,5.89,5.89,0,0,1-.62,0,1.53,1.53,0,0,1-1.4-.71,3,3,0,0,1-.32-1.07,4.79,4.79,0,0,1-1.64,1.35,4.87,4.87,0,0,1-2.36.58,3.43,3.43,0,0,1-2.53-1,3.3,3.3,0,0,1-1-2.44,3.2,3.2,0,0,1,1-2.49,4.49,4.49,0,0,1,2.53-1.09Zm-3.94,5.27a2.17,2.17,0,0,0,1.41.48,4.2,4.2,0,0,0,1.91-.47A2.69,2.69,0,0,0,220.61,86V84.46a3.32,3.32,0,0,1-.88.39,7,7,0,0,1-1.06.21l-1.13.15a4.29,4.29,0,0,0-1.53.45,1.71,1.71,0,0,0-.87,1.61A1.63,1.63,0,0,0,215.73,88.6ZM163.88,74.5h1.87V90.72h-1.87Zm4.7,4h1.78v2.19A4.94,4.94,0,0,1,172,79.26a4.46,4.46,0,0,1,2-.43,3.22,3.22,0,0,1,3.2,1.68,6,6,0,0,1,.46,2.63v7.59h-1.9V83.25a3.84,3.84,0,0,0-.3-1.65,1.82,1.82,0,0,0-1.81-1.06,3.54,3.54,0,0,0-1.09.14,2.73,2.73,0,0,0-1.35.94,2.6,2.6,0,0,0-.61,1.13,7.74,7.74,0,0,0-.14,1.7v6.27h-1.87Zm11.58,0h1.78v2.19a4.92,4.92,0,0,1,1.67-1.42,4.46,4.46,0,0,1,2-.43,3.23,3.23,0,0,1,3.2,1.68,6.08,6.08,0,0,1,.46,2.63v7.59h-1.9V83.25a3.8,3.8,0,0,0-.3-1.65,1.81,1.81,0,0,0-1.81-1.06,3.51,3.51,0,0,0-1.09.14,2.72,2.72,0,0,0-1.35.94,2.63,2.63,0,0,0-.61,1.13,7.71,7.71,0,0,0-.14,1.7v6.27h-1.87Zm23.95,0,3.22,9.94,3.35-9.94h2.16L208.3,90.72h-2L201.81,78.5Zm21.38-4h1.89v4h1.78V80h-1.78v8.13a.78.78,0,0,0,.39.78,1.67,1.67,0,0,0,.73.12h.29l.36,0v1.51a3.94,3.94,0,0,1-.67.15,6.5,6.5,0,0,1-.75,0A2,2,0,0,1,226,90a3.1,3.1,0,0,1-.47-1.77V80H224V78.49h1.5ZM239,80a5.93,5.93,0,0,1,1.48,4.36,7.68,7.68,0,0,1-1.29,4.58,4.63,4.63,0,0,1-4,1.82,4.48,4.48,0,0,1-3.62-1.61,6.48,6.48,0,0,1-1.34-4.3,7,7,0,0,1,1.41-4.6,4.68,4.68,0,0,1,3.8-1.72A4.93,4.93,0,0,1,239,80Zm-1.16,7.63a7.41,7.41,0,0,0,.68-3.23,5.79,5.79,0,0,0-.5-2.6,2.74,2.74,0,0,0-2.68-1.59,2.62,2.62,0,0,0-2.47,1.35,6.49,6.49,0,0,0-.77,3.25,5.63,5.63,0,0,0,.77,3.05,2.68,2.68,0,0,0,2.45,1.22A2.54,2.54,0,0,0,237.83,87.6Zm4.72-9.11h1.76v2.2a4.6,4.6,0,0,1,1.09-1.38,2.7,2.7,0,0,1,2-.82h.16l.44,0v2a2.16,2.16,0,0,0-.32,0h-.28a2.65,2.65,0,0,0-2.18.9,4.22,4.22,0,0,0-.75,2.46v6.85h-1.87ZM139.43,80A4.3,4.3,0,0,0,136,78.5a4.1,4.1,0,0,0-1.86.44,4.26,4.26,0,0,0-1.46,1.27V74.5H130.9V90.72h1.82V89a5,5,0,0,0,1,1.09,3.59,3.59,0,0,0,2.15.64,4.1,4.1,0,0,0,3.55-1.82,7.64,7.64,0,0,0,1.28-4.54A6.48,6.48,0,0,0,139.43,80ZM138,87.75A2.48,2.48,0,0,1,135.78,89,2.75,2.75,0,0,1,133,87.09a7.3,7.3,0,0,1-.4-2.64,4.49,4.49,0,0,1,1-3.23,3,3,0,0,1,2.24-1A2.46,2.46,0,0,1,138,81.43a5.59,5.59,0,0,1,.76,3A6.32,6.32,0,0,1,138,87.75ZM156.55,89a.79.79,0,0,1-.42-.78V74.5h-1.87V88.27a3.08,3.08,0,0,0,.47,1.77,2,2,0,0,0,1.78.68l.45,0V89.06A1.11,1.11,0,0,1,156.55,89Zm-39.44,0a.79.79,0,0,1-.41-.78V74.5h-1.88V88.27a3.13,3.13,0,0,0,.46,1.77,2.05,2.05,0,0,0,1.78.68l.45,0V89.06A1.14,1.14,0,0,1,117.11,89ZM33.63,74.52v1.93H28.24V90.72H26.05V76.45H20.67V74.52Zm9.92,4v7.9a3.51,3.51,0,0,0,.27,1.49,1.92,1.92,0,0,0,1.9,1.06,2.67,2.67,0,0,0,2.71-1.86,7.45,7.45,0,0,0,.39-2.71V78.5h2V90.36H48.93l0-1.74A3.75,3.75,0,0,1,48,89.75a4,4,0,0,1-2.67.94A3.4,3.4,0,0,1,42,89a5.15,5.15,0,0,1-.49-2.42V78.5Zm11,8.18a2.69,2.69,0,0,0,.5,1.48,3.16,3.16,0,0,0,2.62.92,3.93,3.93,0,0,0,2-.46,1.53,1.53,0,0,0,.85-1.44A1.26,1.26,0,0,0,59.8,86a8,8,0,0,0-1.7-.54l-1.58-.38a8,8,0,0,1-2.24-.82A2.42,2.42,0,0,1,53,82.15a3.29,3.29,0,0,1,1.2-2.65,4.92,4.92,0,0,1,3.25-1A4.57,4.57,0,0,1,61.3,80,3.2,3.2,0,0,1,62,82.1H60.17a2.19,2.19,0,0,0-.47-1.18,3.16,3.16,0,0,0-2.4-.76,3,3,0,0,0-1.72.41A1.29,1.29,0,0,0,55,81.68a1.34,1.34,0,0,0,.77,1.19,4.24,4.24,0,0,0,1.31.46l1.32.33a9.87,9.87,0,0,1,2.89,1,2.56,2.56,0,0,1,1.14,2.32,3.48,3.48,0,0,1-1.19,2.65,5.14,5.14,0,0,1-3.64,1.12,5,5,0,0,1-3.73-1.17,4.31,4.31,0,0,1-1.17-2.87Zm27.27-2.31a7.64,7.64,0,0,0,1.28,4.54,4.12,4.12,0,0,0,3.55,1.82,3.55,3.55,0,0,0,2.15-.64,4.78,4.78,0,0,0,1-1.08v1.72h1.82V74.5H89.84v5.72a4.11,4.11,0,0,0-1.47-1.27,4.06,4.06,0,0,0-1.86-.44A4.29,4.29,0,0,0,83.14,80,6.45,6.45,0,0,0,81.84,84.37Zm1.92.09a5.68,5.68,0,0,1,.75-3,2.48,2.48,0,0,1,2.23-1.18,3,3,0,0,1,2.24,1,4.47,4.47,0,0,1,1,3.23,7.31,7.31,0,0,1-.39,2.64A2.73,2.73,0,0,1,86.79,89a2.5,2.5,0,0,1-2.28-1.25A6.43,6.43,0,0,1,83.76,84.46Zm-18.9-10h1.88v4h1.77V80H66.75v8.13a.77.77,0,0,0,.4.78,1.58,1.58,0,0,0,.72.12h.3l.35,0v1.51a3.88,3.88,0,0,1-.67.14c-.24,0-.48,0-.75,0A2.06,2.06,0,0,1,65.32,90a3.21,3.21,0,0,1-.45-1.76V80H63.35V78.5h1.52Zm12.81,4.57a4.28,4.28,0,0,1,1.75,1.49,5.21,5.21,0,0,1,.78,2,13.77,13.77,0,0,1,.17,2.55H71.91A5,5,0,0,0,72.74,88,2.8,2.8,0,0,0,75.14,89a3.1,3.1,0,0,0,2.42-1,3.58,3.58,0,0,0,.72-1.35h1.93a4.45,4.45,0,0,1-.51,1.42,5.61,5.61,0,0,1-1,1.28,4.51,4.51,0,0,1-2.19,1.16,6.64,6.64,0,0,1-1.59.17,4.9,4.9,0,0,1-3.67-1.58,6.07,6.07,0,0,1-1.5-4.38,6.62,6.62,0,0,1,1.51-4.52,5,5,0,0,1,4-1.74A5.3,5.3,0,0,1,77.67,79.08Zm.7,4.54a5.08,5.08,0,0,0-.55-2,2.83,2.83,0,0,0-2.67-1.42,3,3,0,0,0-2.24,1,3.63,3.63,0,0,0-1,2.46ZM34.13,78.5h1.76v2.2A5.09,5.09,0,0,1,37,79.31a2.85,2.85,0,0,1,2-.81h.17l.44,0v2l-.31,0h-.31a2.65,2.65,0,0,0-2.17.91A4.35,4.35,0,0,0,36,83.87v6.85H34.13Z"></path>
                    </svg>